{"glyphs":{":":{"x_min":0,"x_max":245,"ha":245,"o":""},"$":{"x_min":0,"x_max":491,"ha":491,"o":"m 47 169 q 47 196 51 219 q 54 241 60 268 l 158 268 l 158 228 q 158 160 179 124 q 199 88 242 88 q 278 88 296 107 q 313 125 313 160 q 313 174 311 189 q 308 204 302 220 q 295 237 284 256 q 272 275 255 297 l 126 462 q 92 507 72 552 q 53 597 53 652 q 53 689 63 720 q 74 752 94 776 q 113 800 142 816 q 170 832 207 838 l 207 949 l 298 949 l 298 837 q 338 830 365 812 q 392 795 409 771 q 425 748 432 720 q 439 692 439 665 q 439 638 436 615 q 432 592 426 565 l 329 565 l 329 605 q 329 671 308 707 q 287 742 247 742 q 211 742 193 722 q 175 703 175 669 q 175 641 186 618 q 198 595 216 570 l 360 384 q 380 357 396 333 q 412 309 422 284 q 433 260 438 234 q 443 208 443 180 q 443 144 433 113 q 423 83 405 60 q 386 36 359 21 q 332 5 298 -2 l 298 -125 l 208 -125 l 208 -6 q 161 -1 130 15 q 100 32 81 56 q 63 80 55 109 q 47 138 47 169 z"},"?":{"x_min":0,"x_max":501,"ha":501,"o":"m 191 371 q 191 391 192 405 q 193 419 197 433 q 200 446 206 459 q 212 473 223 490 l 281 581 q 299 611 310 643 q 321 675 321 703 q 321 723 315 739 q 310 756 300 768 q 291 779 276 786 q 262 792 244 792 q 205 792 186 757 q 167 722 167 656 l 167 616 l 68 616 q 62 643 59 666 q 55 688 55 715 q 55 752 66 785 q 77 817 101 841 q 125 865 162 878 q 198 892 249 892 q 299 892 337 879 q 375 865 400 840 q 426 815 438 781 q 451 746 451 703 q 451 678 446 656 q 442 634 433 612 q 423 589 410 566 q 396 543 377 518 l 338 465 q 324 446 316 432 q 308 418 304 405 q 301 392 300 377 q 299 363 299 342 l 299 272 l 191 272 z m 176 86 q 176 138 196 160 q 217 182 252 182 q 289 182 309 159 q 329 135 329 86 q 329 42 308 18 q 288 -7 251 -7 q 217 -7 196 17 q 176 41 176 86 z"},"<":{"x_min":0,"x_max":378,"ha":378,"o":"m 22 421 l 336 616 l 336 501 l 133 387 l 133 383 l 336 268 l 336 153 l 22 349 z"},"'":{"x_min":0,"x_max":323,"ha":323,"o":"m 101 916 l 222 916 l 212 576 l 113 576 z"},"=":{"x_min":0,"x_max":447,"ha":447,"o":"m 42 532 l 405 532 l 405 437 l 42 437 z m 42 333 l 405 333 l 405 238 l 42 238 z"},"a":{"x_min":0,"x_max":451,"ha":451,"o":"m 156 -7 q 125 -7 101 5 q 77 18 60 39 q 43 61 35 90 q 26 120 26 154 q 26 196 37 228 q 47 260 67 286 q 86 312 116 333 q 145 354 184 374 q 202 383 225 392 q 249 402 267 409 l 267 498 q 267 517 265 534 q 264 551 258 563 q 252 576 241 583 q 230 590 210 590 q 197 590 185 585 q 172 580 163 568 q 153 557 148 537 q 142 518 142 489 l 142 459 l 48 459 q 43 479 41 494 q 39 510 39 526 q 39 563 52 592 q 65 621 88 641 q 111 660 144 670 q 176 680 214 680 q 265 680 298 669 q 331 658 351 636 q 371 614 379 581 q 387 548 387 503 l 387 0 l 295 0 l 286 58 q 266 29 233 11 q 199 -7 156 -7 z m 211 88 q 227 88 241 96 q 256 104 267 116 l 267 326 q 257 322 245 317 q 232 312 218 303 q 205 294 192 283 q 180 271 170 255 q 160 239 154 219 q 147 198 147 173 q 147 135 163 111 q 178 88 211 88 z"},"L":{"x_min":0,"x_max":379,"ha":379,"o":"m 71 834 l 198 834 l 198 100 l 370 100 l 370 0 l 71 0 z"},"3":{"x_min":0,"x_max":505,"ha":505,"o":"m 49 170 q 49 191 52 216 q 55 241 61 268 l 160 268 l 160 226 q 160 187 166 160 q 173 134 184 118 q 195 102 211 95 q 227 88 245 88 q 263 88 278 93 q 292 98 303 110 q 313 122 318 140 q 324 158 324 185 l 324 277 q 324 303 319 324 q 314 344 304 358 q 294 372 277 379 q 261 387 236 387 l 183 387 l 183 477 l 236 477 q 252 477 266 482 q 279 487 290 499 q 300 510 306 528 q 312 546 312 572 l 312 660 q 312 706 293 728 q 275 750 240 750 q 200 750 179 714 q 158 679 158 612 l 158 565 l 60 565 q 55 589 51 614 q 47 638 47 665 q 47 696 59 728 q 70 759 94 785 q 118 810 154 826 q 190 841 240 841 q 293 841 331 829 q 369 817 393 793 q 417 770 429 735 q 440 701 440 657 l 440 605 q 440 570 431 542 q 422 515 408 494 q 394 474 375 459 q 357 445 338 436 l 338 432 q 362 424 383 410 q 404 397 420 376 q 435 355 444 325 q 453 295 453 254 l 453 199 q 453 142 436 102 q 419 62 391 38 q 363 14 325 3 q 287 -7 245 -7 q 149 -7 99 39 q 49 85 49 170 z"},";":{"x_min":0,"x_max":245,"ha":245,"o":""},"J":{"x_min":0,"x_max":415,"ha":415,"o":"m 171 -8 q 125 -8 93 7 q 61 21 42 47 q 22 72 14 105 q 6 139 6 177 q 6 203 9 236 q 13 269 20 302 l 121 302 l 119 201 q 119 168 122 147 q 125 125 131 112 q 137 99 147 94 q 156 88 170 88 q 181 88 190 92 q 199 97 206 108 q 212 119 215 137 q 219 156 219 185 l 220 834 l 347 834 l 347 202 q 347 138 332 97 q 317 56 293 32 q 268 9 237 1 q 205 -8 171 -8 z"},"V":{"x_min":0,"x_max":466,"ha":466,"o":"m 9 834 l 139 834 l 230 173 l 236 173 l 328 834 l 457 834 l 305 0 l 161 0 z"},"\"":{"x_min":0,"x_max":548,"ha":548,"o":""},"7":{"x_min":0,"x_max":414,"ha":414,"o":"m 265 723 l 20 723 l 20 834 l 401 834 l 401 768 l 171 0 l 34 0 z"},"S":{"x_min":0,"x_max":467,"ha":467,"o":"m 39 169 q 39 196 42 219 q 45 241 52 268 l 150 268 l 150 227 q 150 193 154 167 q 158 142 168 124 q 177 106 193 97 q 209 88 232 88 q 268 88 287 108 q 306 127 306 166 q 306 185 303 201 q 301 218 294 234 q 288 250 276 268 q 265 286 248 308 l 116 464 q 81 509 62 555 q 42 601 42 652 q 42 694 55 729 q 68 763 93 788 q 117 813 153 827 q 189 841 234 841 q 290 841 326 826 q 363 810 385 785 q 407 759 416 728 q 425 696 425 665 q 425 638 421 615 q 417 592 412 565 l 314 565 l 314 604 q 314 671 295 706 q 276 742 233 742 q 197 742 180 722 q 162 702 162 669 q 162 651 165 637 q 167 623 173 611 q 178 599 185 588 q 192 577 202 564 l 349 387 q 389 334 410 286 q 432 238 432 185 q 432 140 418 104 q 404 69 378 44 q 352 19 315 6 q 279 -8 233 -8 q 176 -8 139 7 q 102 22 79 47 q 57 72 48 104 q 39 136 39 169 z"},"}":{"x_min":0,"x_max":438,"ha":438,"o":"m 83 -37 q 112 -37 133 -34 q 153 -30 166 -22 q 179 -14 184 -1 q 189 12 189 31 l 189 229 q 189 264 193 293 q 197 323 206 345 q 215 368 230 385 q 246 401 268 412 l 268 424 q 245 435 230 451 q 215 468 206 491 q 197 514 193 543 q 189 572 189 608 l 189 804 q 189 823 184 836 q 179 849 166 856 q 153 864 133 868 q 112 871 83 871 l 64 871 l 64 946 q 83 952 102 956 q 121 959 137 959 q 170 959 199 949 q 229 938 251 916 q 273 893 286 857 q 299 822 299 771 l 299 567 q 299 538 304 518 q 309 499 319 487 q 329 475 343 470 q 357 464 375 463 l 400 462 l 400 375 l 375 373 q 356 372 342 367 q 328 361 318 349 q 309 337 304 318 q 299 298 299 269 l 299 63 q 299 12 286 -23 q 273 -59 251 -82 q 229 -104 199 -115 q 170 -125 137 -125 q 121 -125 102 -122 q 83 -118 64 -112 l 64 -37 z"},"Z":{"x_min":0,"x_max":422,"ha":422,"o":"m 19 67 l 266 734 l 56 734 l 56 834 l 408 834 l 408 767 l 161 100 l 394 100 l 394 0 l 19 0 z"},"x":{"x_min":0,"x_max":440,"ha":440,"o":"m 152 341 l 19 672 l 146 672 l 217 452 l 218 452 l 294 672 l 413 672 l 285 353 l 428 0 l 302 0 l 219 232 l 215 232 l 131 0 l 12 0 z"},")":{"x_min":0,"x_max":379,"ha":379,"o":"m 59 -41 q 93 -41 120 -18 q 146 5 165 53 q 183 101 193 174 q 203 247 203 348 l 203 490 q 203 679 166 777 q 130 874 59 874 l 59 958 q 77 958 97 957 q 118 955 139 948 q 160 941 181 927 q 203 913 222 889 q 242 865 259 829 q 275 793 288 742 q 300 691 307 623 q 314 555 314 467 l 314 371 q 314 281 307 212 q 300 144 288 92 q 275 40 259 4 q 242 -32 222 -56 q 203 -81 181 -94 q 160 -108 139 -115 q 118 -122 97 -124 q 77 -125 59 -125 l 59 -41 z"},"&":{"x_min":0,"x_max":591,"ha":591,"o":"m 27 200 q 27 242 41 278 q 54 315 74 346 q 93 377 115 402 q 137 427 153 446 l 166 460 l 149 490 q 137 513 125 538 q 113 563 104 590 q 95 617 90 644 q 84 672 84 699 q 84 742 99 776 q 114 810 139 834 q 164 858 197 871 q 231 884 269 884 q 319 884 351 869 q 384 854 403 831 q 422 808 429 782 q 437 756 437 733 q 437 688 422 649 q 407 610 386 578 q 366 546 343 521 q 321 496 306 479 l 295 466 l 421 237 q 429 264 434 293 q 438 323 438 354 q 438 370 438 384 q 438 397 437 411 l 539 411 q 541 398 542 383 q 543 368 543 354 q 543 295 525 240 q 507 185 476 138 l 552 0 l 421 0 l 394 49 q 358 22 319 7 q 280 -8 240 -8 q 193 -8 154 6 q 115 20 86 46 q 58 73 42 112 q 27 150 27 200 z m 258 558 q 268 569 280 584 q 292 600 304 619 q 315 638 323 661 q 331 685 331 712 q 331 730 325 744 q 320 758 312 767 q 303 775 292 780 q 281 784 269 784 q 258 784 246 780 q 233 776 223 766 q 213 756 207 740 q 200 724 200 699 q 200 683 203 667 q 206 651 211 633 q 217 615 227 595 q 236 575 250 549 z m 152 217 q 152 194 159 171 q 166 147 179 129 q 193 111 215 99 q 237 88 267 88 q 291 88 312 98 q 333 107 352 125 l 213 375 q 184 338 168 298 q 152 258 152 217 z"},"_":{"x_min":0,"x_max":674,"ha":674,"o":"m 677 -84 l 677 -164 l -2 -164 l -2 -84 z"},"v":{"x_min":0,"x_max":427,"ha":427,"o":"m 8 672 l 131 672 l 196 315 l 212 172 l 216 172 l 234 315 l 299 672 l 418 672 l 265 0 l 159 0 z"},"O":{"x_min":0,"x_max":510,"ha":510,"o":"m 256 -7 q 236 -7 212 -4 q 189 -1 166 9 q 143 20 122 38 q 101 57 84 88 q 68 119 58 164 q 48 209 48 271 l 48 567 q 48 630 58 675 q 68 719 85 750 q 102 780 123 798 q 144 816 167 826 q 190 835 213 838 q 236 841 256 841 q 274 841 297 839 q 320 836 343 827 q 365 818 387 800 q 408 782 425 752 q 441 721 451 676 q 461 631 461 567 l 461 271 q 461 209 451 165 q 441 120 424 89 q 408 58 386 39 q 364 21 342 10 q 319 0 296 -4 q 274 -7 256 -7 z m 256 88 q 274 88 288 94 q 302 101 311 116 q 320 132 325 157 q 330 183 330 222 l 330 602 q 330 642 325 668 q 320 695 311 712 q 302 728 288 735 q 274 742 256 742 q 237 742 223 735 q 208 728 199 712 q 190 695 185 668 q 181 642 181 602 l 181 222 q 181 183 185 157 q 190 132 199 116 q 208 101 223 94 q 237 88 256 88 z"},"(":{"x_min":0,"x_max":379,"ha":379,"o":"m 319 -125 q 302 -125 281 -124 q 261 -122 240 -115 q 219 -108 198 -94 q 176 -81 156 -56 q 137 -32 120 4 q 103 40 91 92 q 78 144 71 212 q 64 281 64 371 l 64 467 q 64 555 71 623 q 78 691 91 742 q 103 793 120 829 q 137 865 156 889 q 176 913 198 927 q 219 941 240 948 q 261 955 281 957 q 302 958 319 958 l 319 874 q 249 874 212 777 q 176 680 176 490 l 176 348 q 176 247 186 174 q 196 101 214 53 q 232 5 259 -18 q 286 -41 319 -41 z"},"C":{"x_min":0,"x_max":457,"ha":457,"o":"m 251 -7 q 231 -7 209 -4 q 186 -1 163 9 q 141 20 120 38 q 99 57 83 88 q 67 119 58 164 q 48 209 48 271 l 48 567 q 48 630 58 675 q 68 719 84 750 q 100 780 121 798 q 142 816 165 826 q 187 835 209 838 q 231 841 250 841 q 300 841 334 827 q 367 813 387 789 q 408 765 416 733 q 425 701 425 665 q 425 638 422 615 q 419 592 414 565 l 312 565 l 312 607 q 312 676 296 710 q 281 745 252 745 q 234 745 221 738 q 208 731 199 715 q 190 698 186 671 q 181 645 181 604 l 181 224 q 181 185 185 159 q 188 133 197 117 q 205 102 219 95 q 232 88 251 88 q 263 88 274 94 q 286 100 294 112 q 303 124 308 142 q 313 160 313 185 l 313 267 l 429 267 l 429 189 q 429 89 383 41 q 337 -7 251 -7 z"},"W":{"x_min":0,"x_max":722,"ha":722,"o":"m 18 834 l 139 834 l 195 330 l 202 212 l 214 212 l 226 345 l 315 834 l 417 834 l 502 345 l 512 212 l 525 212 l 531 330 l 582 834 l 704 834 l 587 0 l 458 0 l 390 401 l 368 575 l 358 575 l 337 401 l 265 0 l 138 0 z"},"A":{"x_min":0,"x_max":472,"ha":472,"o":"m 163 834 l 309 834 l 463 0 l 335 0 l 312 149 l 160 149 l 138 0 l 9 0 z m 297 245 l 239 660 l 233 660 l 174 245 z"},"f":{"x_min":0,"x_max":301,"ha":301,"o":"m 80 584 l 22 584 l 22 672 l 80 672 l 80 721 q 80 775 91 810 q 103 844 122 864 q 142 883 169 890 q 195 896 226 896 q 235 896 246 896 q 257 895 268 892 q 279 890 289 887 q 300 884 308 880 l 308 793 q 288 798 262 798 q 250 798 239 794 q 228 791 220 781 q 211 772 207 758 q 202 743 202 721 l 202 672 l 295 672 l 295 584 l 202 584 l 202 0 l 80 0 z"},"Q":{"x_min":0,"x_max":520,"ha":520,"o":"m 209 -2 q 182 3 154 18 q 126 33 104 64 q 81 96 67 146 q 53 196 53 271 l 53 567 q 53 630 63 675 q 73 719 90 750 q 106 780 128 798 q 149 816 172 826 q 195 835 218 838 q 241 841 261 841 q 279 841 302 839 q 325 836 347 827 q 370 818 392 800 q 413 782 430 752 q 446 721 456 676 q 466 631 466 567 l 466 271 q 466 199 453 150 q 439 101 417 70 q 396 39 369 22 q 342 6 316 0 l 316 -8 q 316 -32 322 -46 q 327 -61 338 -69 q 349 -77 365 -80 q 382 -83 403 -83 q 410 -83 417 -83 q 424 -83 430 -82 l 430 -150 q 406 -161 385 -165 q 364 -169 340 -169 q 330 -169 316 -168 q 303 -167 288 -162 q 273 -157 260 -149 q 246 -140 234 -125 q 223 -110 216 -88 q 209 -66 209 -35 z m 261 88 q 279 88 293 94 q 307 101 316 116 q 325 132 330 157 q 334 183 334 222 l 334 602 q 334 642 330 668 q 325 695 316 712 q 307 728 293 735 q 279 742 261 742 q 242 742 228 735 q 213 728 204 712 q 195 695 190 668 q 186 642 186 602 l 186 222 q 186 183 190 157 q 195 132 204 116 q 213 101 228 94 q 242 88 261 88 z"},"w":{"x_min":0,"x_max":653,"ha":653,"o":"m 17 672 l 135 672 l 183 308 l 195 172 l 199 172 l 213 308 l 278 672 l 382 672 l 448 308 l 466 172 l 470 172 l 479 308 l 521 672 l 636 672 l 527 0 l 414 0 l 344 374 l 328 477 l 324 477 l 310 374 l 247 0 l 128 0 z"},"-":{"x_min":0,"x_max":487,"ha":487,"o":"m 62 434 l 425 434 l 425 334 l 62 334 z"},"E":{"x_min":0,"x_max":405,"ha":405,"o":"m 71 834 l 380 834 l 380 734 l 198 734 l 198 485 l 339 485 l 339 385 l 198 385 l 198 100 l 385 100 l 385 0 l 71 0 z"},"s":{"x_min":0,"x_max":405,"ha":405,"o":"m 37 141 q 37 163 41 183 q 45 204 49 216 l 136 216 q 136 179 140 155 q 144 130 152 115 q 160 101 174 94 q 188 88 208 88 q 236 88 249 104 q 261 119 261 140 q 261 150 258 160 q 255 170 250 180 q 245 190 237 200 q 229 210 219 223 l 129 329 q 111 351 95 374 q 79 396 66 421 q 54 445 46 471 q 39 498 39 527 q 39 566 52 595 q 65 624 88 643 q 111 662 141 671 q 170 680 204 680 q 240 680 270 671 q 299 663 320 645 q 341 627 352 601 q 363 575 363 541 q 363 517 359 495 q 355 473 351 458 l 266 458 q 265 491 263 516 q 260 541 254 557 q 247 573 236 582 q 224 590 206 590 q 189 590 179 585 q 168 580 161 571 q 155 563 152 553 q 149 542 149 532 q 149 508 161 488 q 172 468 190 445 l 289 329 q 300 316 314 297 q 328 278 341 256 q 354 233 362 206 q 371 179 371 150 q 371 114 360 85 q 349 56 327 36 q 305 15 273 4 q 241 -7 200 -7 q 166 -7 136 0 q 106 8 84 25 q 62 42 50 71 q 37 99 37 141 z"},">":{"x_min":0,"x_max":378,"ha":378,"o":""},"l":{"x_min":0,"x_max":254,"ha":254,"o":"m 65 888 l 189 888 l 189 0 l 65 0 z"},"8":{"x_min":0,"x_max":509,"ha":509,"o":"m 42 253 q 42 290 50 318 q 58 347 72 368 q 86 390 105 405 q 124 420 146 432 l 146 436 q 130 444 114 458 q 97 471 84 490 q 71 509 62 535 q 54 562 54 595 l 54 654 q 54 694 64 724 q 74 754 90 775 q 105 796 126 809 q 147 822 170 829 q 192 836 214 839 q 236 841 255 841 q 274 841 296 839 q 318 836 340 829 q 363 822 384 809 q 404 796 420 775 q 437 754 446 725 q 456 695 456 654 l 456 596 q 456 562 448 536 q 439 510 426 490 q 413 471 397 458 q 380 445 364 436 l 364 432 q 387 421 406 406 q 424 390 438 369 q 452 347 460 319 q 468 291 468 254 l 468 203 q 468 160 459 127 q 450 95 435 72 q 419 48 399 33 q 378 18 355 9 q 331 0 305 -4 q 280 -7 254 -7 q 229 -7 204 -4 q 178 0 155 9 q 131 18 110 33 q 90 48 75 72 q 60 95 51 127 q 42 159 42 202 z m 261 477 q 275 477 287 481 q 300 486 309 497 q 318 508 324 527 q 329 546 329 575 l 329 644 q 329 696 312 723 q 294 750 255 750 q 215 750 198 722 q 182 695 182 643 l 182 575 q 182 547 186 528 q 191 509 200 498 q 208 486 221 481 q 233 477 249 477 z m 171 192 q 171 160 178 140 q 185 120 197 108 q 208 97 223 92 q 238 88 254 88 q 271 88 286 92 q 301 97 313 108 q 325 120 332 140 q 339 161 339 192 l 339 284 q 339 312 334 331 q 328 350 318 363 q 308 375 293 381 q 278 386 261 386 l 249 386 q 213 386 192 362 q 171 337 171 284 z"},"\\":{"x_min":0,"x_max":270,"ha":270,"o":"m 5 920 l 112 920 l 265 -159 l 158 -159 z"},"e":{"x_min":0,"x_max":450,"ha":450,"o":"m 226 -7 q 182 -7 149 9 q 115 25 92 59 q 69 93 58 147 q 46 200 46 275 l 46 402 q 46 466 55 512 q 65 558 80 589 q 96 620 116 638 q 136 656 158 665 q 179 675 200 677 q 222 680 240 680 q 273 680 304 670 q 334 660 358 636 q 381 612 395 571 q 409 531 409 470 q 409 450 408 429 q 407 408 405 387 q 403 367 400 348 q 396 329 393 313 l 170 313 l 170 245 q 170 201 173 171 q 177 141 185 122 q 193 104 207 96 q 221 88 242 88 q 253 88 264 93 q 274 97 282 108 q 291 119 295 136 q 300 154 300 181 l 300 202 l 403 202 l 403 176 q 403 80 358 36 q 312 -7 226 -7 z m 294 396 q 294 401 295 410 q 295 419 296 429 q 296 439 296 448 q 296 458 296 465 q 296 531 280 561 q 265 590 234 590 q 218 590 206 582 q 193 575 186 557 q 178 539 174 510 q 170 480 170 437 l 170 396 z"},"b":{"x_min":0,"x_max":483,"ha":483,"o":"m 63 888 l 187 888 l 187 709 l 183 620 l 184 620 q 192 631 203 642 q 214 653 228 661 q 242 670 259 675 q 275 680 295 680 q 306 680 320 678 q 334 676 350 668 q 365 660 381 645 q 396 629 408 603 q 420 576 427 536 q 435 496 435 438 l 435 235 q 435 178 427 138 q 420 98 408 71 q 396 43 380 28 q 364 12 348 4 q 332 -3 317 -6 q 302 -8 291 -8 q 267 -8 248 -2 q 229 4 215 14 q 201 24 190 37 q 179 49 170 62 l 160 0 l 63 0 z m 187 136 q 191 127 197 118 q 202 109 209 103 q 217 96 227 92 q 236 88 249 88 q 262 88 273 93 q 285 98 293 112 q 301 125 306 149 q 311 173 311 210 l 311 468 q 311 505 306 529 q 301 553 293 566 q 285 580 274 585 q 263 590 249 590 q 226 590 211 576 q 196 563 187 544 z"},"%":{"x_min":0,"x_max":920,"ha":920,"o":"m 234 384 q 206 384 178 392 q 150 399 127 422 q 104 445 90 487 q 76 528 76 596 l 76 648 q 76 693 83 725 q 90 758 102 781 q 114 804 129 818 q 145 832 163 840 q 180 848 198 851 q 217 854 234 854 q 251 854 269 851 q 287 848 304 840 q 322 833 337 819 q 353 805 365 782 q 376 759 383 726 q 390 693 390 648 l 390 596 q 390 529 375 488 q 360 446 337 423 q 313 400 286 392 q 258 384 234 384 z m 530 843 l 618 843 l 394 0 l 305 0 z m 235 461 q 266 461 278 488 q 290 515 290 571 l 290 666 q 290 722 278 749 q 266 776 235 776 q 203 776 190 749 q 177 722 177 666 l 177 571 q 177 515 190 488 q 203 461 235 461 z m 531 257 q 531 324 546 365 q 561 405 584 427 q 607 448 635 455 q 663 462 688 462 q 705 462 723 460 q 741 457 759 449 q 776 441 792 427 q 807 414 819 391 q 831 368 837 335 q 844 302 844 257 l 844 205 q 844 160 837 127 q 830 94 818 70 q 806 47 791 32 q 775 17 758 8 q 740 -1 722 -4 q 704 -7 688 -7 q 669 -7 651 -4 q 632 -1 615 7 q 597 16 582 31 q 566 46 555 69 q 544 93 537 126 q 531 160 531 205 z m 631 180 q 631 124 644 97 q 657 70 689 70 q 720 70 732 97 q 744 124 744 180 l 744 274 q 744 331 732 358 q 720 385 689 385 q 657 385 644 358 q 631 331 631 274 z"},"m":{"x_min":0,"x_max":742,"ha":742,"o":"m 63 672 l 159 672 l 170 601 l 170 600 q 185 623 201 638 q 218 654 236 663 q 253 672 272 676 q 291 680 310 680 q 349 680 376 661 q 404 642 418 604 q 433 626 449 641 q 465 655 483 664 q 500 673 519 677 q 537 680 555 680 q 614 680 646 639 q 678 598 678 515 l 678 0 l 554 0 l 554 511 q 554 533 551 548 q 547 563 541 572 q 534 582 523 586 q 512 590 497 590 q 480 590 463 577 q 446 565 432 543 q 432 539 432 534 q 432 530 432 525 l 432 0 l 309 0 l 309 511 q 309 533 305 548 q 302 563 295 572 q 288 582 277 586 q 267 590 251 590 q 235 590 218 578 q 201 565 187 544 l 187 0 l 63 0 z"},"#":{"x_min":0,"x_max":541,"ha":541,"o":"m 116 188 l 47 188 l 47 277 l 122 277 l 131 395 l 66 395 l 66 484 l 138 484 l 151 668 l 239 668 l 225 484 l 341 484 l 355 668 l 442 668 l 429 484 l 494 484 l 494 395 l 422 395 l 413 277 l 475 277 l 475 188 l 407 188 l 393 0 l 306 0 l 319 188 l 203 188 l 189 0 l 102 0 z m 326 277 l 335 395 l 218 395 l 209 277 z"},",":{"x_min":0,"x_max":250,"ha":250,"o":"m 76 171 l 201 171 l 130 -160 l 27 -160 z"},"n":{"x_min":0,"x_max":498,"ha":498,"o":"m 63 672 l 159 672 l 170 601 l 170 600 q 185 623 201 638 q 218 654 236 663 q 254 672 273 676 q 292 680 311 680 q 370 680 402 639 q 434 598 434 515 l 434 0 l 310 0 l 310 511 q 310 555 296 573 q 283 590 256 590 q 238 590 219 578 q 201 565 187 544 l 187 0 l 63 0 z"},"h":{"x_min":0,"x_max":499,"ha":499,"o":"m 63 888 l 187 888 l 187 730 l 181 615 q 194 634 210 646 q 226 659 243 666 q 260 674 277 677 q 294 680 312 680 q 371 680 403 639 q 435 598 435 515 l 435 0 l 311 0 l 311 511 q 311 555 297 573 q 284 590 257 590 q 239 590 220 577 q 201 565 187 543 l 187 0 l 63 0 z"},"z":{"x_min":0,"x_max":343,"ha":343,"o":"m 11 62 l 199 579 l 27 579 l 27 672 l 332 672 l 332 611 l 143 94 l 333 94 l 333 0 l 11 0 z"},"B":{"x_min":0,"x_max":511,"ha":511,"o":"m 71 834 l 199 834 q 228 834 258 832 q 288 830 317 824 q 346 817 372 805 q 397 792 417 771 q 436 750 448 719 q 459 688 459 645 l 459 604 q 459 571 449 543 q 440 516 424 494 q 409 473 389 459 q 369 445 348 440 l 348 437 q 410 425 441 378 q 473 330 473 256 l 473 213 q 473 168 463 135 q 453 101 435 77 q 417 54 392 39 q 367 23 337 15 q 307 6 273 3 q 240 0 204 0 l 71 0 z m 220 477 q 245 477 266 483 q 287 489 302 502 q 317 515 325 536 q 333 557 333 586 l 333 620 q 333 649 327 672 q 321 694 308 710 q 294 726 273 734 q 251 742 220 742 l 195 742 l 195 477 z m 231 88 q 257 88 278 94 q 298 101 313 115 q 328 129 336 150 q 344 172 344 201 l 344 266 q 344 295 338 318 q 333 341 319 356 q 306 372 284 380 q 263 388 231 388 l 195 388 l 195 88 z"},"K":{"x_min":0,"x_max":491,"ha":491,"o":"m 71 834 l 198 834 l 198 470 l 202 470 l 346 834 l 472 834 l 311 443 l 490 0 l 355 0 l 202 397 l 198 397 l 198 0 l 71 0 z"},"R":{"x_min":0,"x_max":512,"ha":512,"o":"m 71 834 l 208 834 q 232 834 260 832 q 288 830 316 823 q 344 815 370 800 q 396 785 417 758 q 437 732 449 692 q 461 652 461 596 l 461 575 q 461 479 434 420 q 407 360 354 333 l 487 0 l 354 0 l 243 312 l 195 312 l 195 0 l 71 0 z m 214 403 q 248 403 271 411 q 293 418 308 435 q 322 453 328 481 q 334 510 334 552 l 334 618 q 334 650 329 673 q 323 697 309 712 q 295 727 272 734 q 249 742 214 742 l 195 742 l 195 403 z"},"T":{"x_min":0,"x_max":423,"ha":423,"o":"m 148 734 l 14 734 l 14 834 l 409 834 l 409 734 l 275 734 l 275 0 l 148 0 z"},"P":{"x_min":0,"x_max":479,"ha":479,"o":"m 71 834 l 198 834 q 222 834 250 832 q 279 830 307 822 q 336 813 363 797 q 389 780 410 752 q 430 723 443 680 q 455 637 455 576 l 455 546 q 455 479 444 432 q 432 384 413 352 q 394 319 369 300 q 344 280 317 270 q 290 260 262 257 q 234 254 210 254 l 198 254 l 198 0 l 71 0 z m 204 347 q 238 347 262 357 q 285 367 299 388 q 313 409 319 443 q 325 476 325 523 l 325 598 q 325 635 320 662 q 314 689 301 707 q 287 725 263 733 q 240 742 204 742 l 198 742 l 198 347 z"},"|":{"x_min":0,"x_max":349,"ha":349,"o":"m 121 920 l 228 920 l 228 -159 l 121 -159 z"},"t":{"x_min":0,"x_max":330,"ha":330,"o":"m 78 584 l 25 584 l 25 672 l 88 672 l 113 847 l 201 847 l 201 672 l 309 672 l 309 584 l 201 584 l 201 157 q 201 135 205 121 q 209 108 217 100 q 224 93 234 90 q 244 88 254 88 q 272 88 286 92 q 300 97 313 104 l 313 36 q 302 23 290 15 q 277 6 264 1 q 251 -4 237 -6 q 224 -8 210 -8 q 185 -8 161 -1 q 137 6 118 25 q 100 44 89 79 q 78 113 78 167 z"},"M":{"x_min":0,"x_max":704,"ha":704,"o":"m 71 834 l 236 834 l 316 511 q 329 458 336 409 q 344 360 351 317 l 354 317 q 361 360 369 409 q 376 458 389 511 l 471 834 l 633 834 l 633 0 l 515 0 l 515 276 q 515 339 516 398 q 517 457 519 506 q 521 555 523 592 q 526 630 528 652 l 519 652 l 393 107 l 312 107 l 186 652 l 176 652 q 178 630 181 592 q 183 555 185 506 q 187 457 188 398 q 189 339 189 276 l 189 0 l 71 0 z"},"g":{"x_min":0,"x_max":485,"ha":485,"o":"m 164 -46 q 164 -89 180 -107 q 196 -125 230 -125 q 244 -125 256 -121 q 269 -117 279 -106 q 288 -95 294 -76 q 300 -56 300 -25 l 300 81 q 283 59 257 44 q 231 28 192 28 q 181 28 166 31 q 151 33 135 41 q 119 48 103 64 q 87 80 75 107 q 63 134 55 174 q 48 214 48 271 l 48 448 q 48 503 55 541 q 63 580 75 605 q 87 631 103 646 q 119 661 135 668 q 152 676 167 678 q 183 680 195 680 q 220 680 239 673 q 257 667 271 656 q 285 646 295 633 q 305 620 312 606 l 323 673 l 419 673 l 419 27 q 419 -29 408 -74 q 397 -119 375 -151 q 352 -183 316 -200 q 281 -217 231 -217 q 198 -217 169 -211 q 140 -206 118 -191 q 96 -176 83 -150 q 70 -125 70 -85 q 70 -78 72 -68 q 73 -58 77 -46 z m 234 124 q 247 124 256 128 q 266 132 273 139 q 281 146 286 155 q 292 164 296 173 l 296 541 q 287 561 271 575 q 256 590 234 590 q 220 590 209 585 q 198 580 189 567 q 181 553 177 530 q 172 506 172 468 l 172 247 q 172 209 177 186 q 181 162 189 148 q 198 134 209 129 q 221 124 234 124 z"},"j":{"x_min":0,"x_max":254,"ha":254,"o":""},"i":{"x_min":0,"x_max":254,"ha":254,"o":""},"y":{"x_min":0,"x_max":438,"ha":438,"o":"m 38 -129 q 66 -133 89 -128 q 113 -122 130 -106 q 146 -91 156 -65 q 167 -40 168 -4 l 9 672 l 134 672 l 205 300 l 226 172 l 229 172 l 244 300 l 301 672 l 422 672 l 281 -25 q 271 -73 257 -109 q 243 -146 221 -169 q 200 -193 171 -205 q 142 -217 103 -217 q 71 -217 38 -205 l 38 -129 z"},"@":{"x_min":0,"x_max":805,"ha":805,"o":"m 44 461 q 44 550 60 616 q 75 683 102 730 q 128 777 164 808 q 199 839 239 857 q 279 875 321 882 q 362 889 402 889 q 442 889 485 883 q 527 877 567 861 q 607 845 642 816 q 678 787 704 741 q 730 696 746 631 q 761 566 761 477 l 761 374 q 761 305 755 247 q 749 189 732 146 q 715 104 685 80 q 655 56 608 56 q 558 56 528 79 q 498 102 484 150 q 467 104 438 81 q 409 57 373 57 q 360 57 345 58 q 329 60 313 67 q 297 75 282 90 q 267 104 255 130 q 243 156 236 195 q 229 234 229 290 l 229 409 q 229 459 236 495 q 242 532 253 557 q 264 582 279 597 q 293 612 308 621 q 323 629 338 632 q 353 634 365 634 q 399 634 423 617 q 447 600 463 574 l 472 627 l 568 627 l 568 220 q 568 198 572 184 q 575 169 582 161 q 588 153 596 149 q 604 146 612 146 q 623 146 633 153 q 643 159 649 180 q 656 200 660 239 q 665 277 665 340 l 665 477 q 665 555 652 609 q 640 664 619 700 q 599 736 572 757 q 545 778 516 788 q 487 798 458 801 q 428 804 403 804 q 377 804 348 800 q 318 796 289 784 q 260 772 233 749 q 206 727 186 688 q 165 650 153 595 q 140 539 140 461 l 140 231 q 140 152 153 96 q 167 40 189 2 q 211 -35 240 -57 q 270 -79 302 -90 q 334 -101 368 -104 q 401 -107 432 -107 q 446 -107 463 -106 q 481 -104 499 -102 q 517 -99 533 -95 q 550 -91 563 -86 l 563 -164 q 554 -171 536 -177 q 519 -183 497 -187 q 475 -191 450 -194 q 426 -197 404 -197 q 373 -197 334 -191 q 295 -186 255 -169 q 215 -153 177 -123 q 139 -92 110 -43 q 80 7 62 79 q 44 151 44 250 z m 401 152 q 419 152 431 164 q 443 176 451 193 l 451 497 q 443 515 431 528 q 419 540 401 540 q 391 540 381 536 q 371 531 363 519 q 355 506 351 483 q 346 459 346 422 l 346 267 q 346 230 350 208 q 354 186 361 174 q 369 161 379 157 q 389 152 401 152 z"},".":{"x_min":0,"x_max":245,"ha":245,"o":"m 44 87 q 44 139 65 162 q 85 184 121 184 q 157 184 177 160 q 197 136 197 87 q 197 42 177 18 q 157 -7 120 -7 q 85 -7 65 17 q 44 41 44 87 z"},"p":{"x_min":0,"x_max":483,"ha":483,"o":"m 187 -38 l 187 -217 l 63 -217 l 63 672 l 160 672 l 171 602 q 180 615 191 629 q 203 644 218 655 q 233 666 253 673 q 272 680 296 680 q 306 680 321 678 q 335 676 350 668 q 366 660 381 645 q 396 629 408 603 q 420 576 428 536 q 436 496 436 438 l 436 235 q 436 178 428 138 q 420 98 408 71 q 396 44 380 28 q 365 13 349 5 q 333 -3 317 -5 q 302 -7 291 -7 q 252 -7 226 8 q 200 23 183 44 z m 187 137 q 191 127 197 119 q 202 110 210 103 q 217 96 227 92 q 236 88 249 88 q 263 88 274 93 q 285 98 293 112 q 302 125 306 149 q 311 173 311 210 l 311 468 q 311 505 306 529 q 302 553 294 566 q 286 580 274 585 q 263 590 250 590 q 226 590 211 576 q 196 562 187 543 z"},"X":{"x_min":0,"x_max":458,"ha":458,"o":"m 168 420 l 16 834 l 151 834 l 229 567 l 234 567 l 312 834 l 442 834 l 290 419 l 442 0 l 312 0 l 233 268 l 225 268 l 142 0 l 16 0 z"},"*":{"x_min":0,"x_max":512,"ha":512,"o":"m 82 485 l 197 605 l 39 635 l 73 751 l 219 672 l 197 843 l 317 843 l 291 672 l 438 749 l 473 632 l 312 605 l 426 481 l 329 410 l 254 563 l 179 412 z"},"Y":{"x_min":0,"x_max":468,"ha":468,"o":"m 170 278 l 2 834 l 130 834 l 232 435 l 238 435 l 339 834 l 466 834 l 297 278 l 297 0 l 170 0 z"},"c":{"x_min":0,"x_max":425,"ha":425,"o":"m 220 -7 q 135 -7 91 62 q 46 132 46 275 l 46 402 q 46 466 55 512 q 64 558 80 589 q 95 620 115 638 q 135 656 156 665 q 177 675 197 677 q 218 680 235 680 q 269 680 297 671 q 326 662 346 644 q 367 625 378 598 q 389 570 389 532 q 389 509 387 492 q 385 475 381 459 l 282 459 l 282 482 q 282 533 270 561 q 258 590 231 590 q 216 590 205 583 q 193 576 186 559 q 178 542 175 513 q 171 484 171 440 l 171 250 q 171 206 174 175 q 177 144 184 125 q 191 105 204 97 q 216 88 234 88 q 243 88 252 93 q 261 97 267 108 q 274 119 278 136 q 282 154 282 181 l 282 202 l 389 202 l 389 176 q 389 80 346 36 q 304 -7 220 -7 z"},"!":{"x_min":0,"x_max":337,"ha":337,"o":"m 102 885 l 235 885 l 220 271 l 119 271 z m 93 86 q 93 138 114 160 q 134 182 169 182 q 206 182 226 159 q 246 135 246 86 q 246 42 226 18 q 206 -7 169 -7 q 134 -7 114 17 q 93 41 93 86 z"},"/":{"x_min":0,"x_max":270,"ha":270,"o":"m 158 920 l 265 920 l 112 -159 l 5 -159 z"},"[":{"x_min":0,"x_max":379,"ha":379,"o":"m 68 958 l 314 958 l 314 865 l 176 865 l 176 -32 l 314 -32 l 314 -125 l 68 -125 z"},"6":{"x_min":0,"x_max":513,"ha":513,"o":"m 53 590 q 53 648 63 689 q 74 730 91 758 q 108 786 131 802 q 153 819 177 828 q 201 836 224 839 q 248 841 267 841 q 317 841 353 828 q 389 815 411 794 q 434 772 444 743 q 455 714 455 683 q 455 666 451 645 q 448 625 441 604 l 345 604 l 345 629 q 345 667 341 691 q 336 715 326 729 q 317 743 302 748 q 288 753 267 753 q 225 753 203 725 q 181 696 181 633 l 181 473 q 199 493 229 507 q 259 521 299 521 q 327 521 356 512 q 385 503 409 480 q 433 457 448 417 q 462 377 462 315 l 462 234 q 462 167 448 121 q 435 75 409 47 q 383 18 346 5 q 310 -7 265 -7 q 213 -7 174 6 q 135 20 108 50 q 81 81 67 129 q 53 178 53 248 z m 181 200 q 181 143 200 115 q 220 88 263 88 q 301 88 318 115 q 336 142 336 195 l 336 319 q 336 350 331 370 q 325 391 315 403 q 306 416 292 421 q 278 426 261 426 q 248 426 236 422 q 224 418 214 412 q 204 406 195 397 q 187 389 181 381 z"},"r":{"x_min":0,"x_max":385,"ha":385,"o":"m 63 672 l 154 672 l 165 604 q 185 642 212 661 q 238 680 266 680 q 319 680 345 647 q 370 615 370 549 q 370 541 369 530 q 368 518 365 506 q 363 493 360 481 q 357 468 354 458 l 268 458 l 268 521 q 268 541 265 554 q 262 567 258 575 q 253 583 248 587 q 242 590 235 590 q 220 590 208 580 q 195 571 187 554 l 187 0 l 63 0 z"},"2":{"x_min":0,"x_max":484,"ha":484,"o":"m 50 74 l 234 429 q 259 477 275 513 q 291 549 300 576 q 309 604 312 624 q 316 644 316 660 q 316 685 311 702 q 307 720 298 730 q 289 741 275 745 q 262 750 244 750 q 201 750 182 714 q 163 679 163 612 l 163 565 l 65 565 q 60 592 56 615 q 52 638 52 665 q 52 696 63 728 q 74 759 97 785 q 121 810 157 826 q 193 841 244 841 q 299 841 338 829 q 376 816 401 792 q 426 767 438 732 q 449 697 449 652 q 449 627 445 602 q 440 578 429 550 q 418 521 401 488 q 384 455 359 412 l 195 100 l 438 100 l 438 0 l 50 0 z"},"{":{"x_min":0,"x_max":438,"ha":438,"o":"m 139 269 q 139 298 134 318 q 129 337 119 349 q 109 361 95 367 q 81 372 62 373 l 37 375 l 37 462 l 62 463 q 81 464 95 470 q 109 475 119 487 q 128 499 133 518 q 138 538 138 567 l 138 771 q 138 822 151 857 q 164 893 186 916 q 208 938 238 949 q 267 959 300 959 q 316 959 335 956 q 354 952 374 946 l 374 871 l 355 871 q 325 871 304 868 q 284 864 271 856 q 259 849 253 836 q 248 823 248 804 l 248 608 q 248 572 244 543 q 241 514 232 491 q 223 468 207 451 q 192 435 169 424 l 169 412 q 191 401 207 385 q 222 368 231 345 q 240 323 244 293 q 248 264 248 229 l 248 31 q 248 12 253 -1 q 259 -14 271 -22 q 284 -30 304 -34 q 325 -37 355 -37 l 374 -37 l 374 -112 q 354 -118 335 -122 q 316 -125 300 -125 q 267 -125 238 -115 q 208 -104 187 -82 q 165 -59 152 -23 q 139 12 139 63 z"},"9":{"x_min":0,"x_max":507,"ha":507,"o":"m 451 244 q 451 186 441 145 q 431 104 414 76 q 396 48 375 31 q 353 15 330 6 q 306 -2 283 -5 q 261 -7 242 -7 q 190 -7 153 6 q 117 19 94 40 q 71 62 60 91 q 49 120 49 151 q 49 168 52 189 q 56 209 62 230 l 159 230 l 159 212 q 159 174 164 150 q 168 126 179 112 q 189 98 205 93 q 220 88 242 88 q 281 88 302 116 q 323 145 323 208 l 323 361 q 305 341 275 327 q 246 313 207 313 q 178 313 149 322 q 120 331 96 354 q 72 377 57 417 q 42 457 42 519 l 42 600 q 42 667 55 713 q 69 759 95 787 q 121 816 157 829 q 194 841 239 841 q 291 841 330 828 q 369 815 396 786 q 423 757 437 709 q 451 661 451 591 z m 323 647 q 323 676 318 696 q 313 715 303 727 q 293 739 278 745 q 262 750 241 750 q 203 750 186 723 q 168 696 168 643 l 168 515 q 168 484 173 464 q 179 443 188 431 q 198 418 212 413 q 226 408 243 408 q 256 408 268 412 q 280 416 290 422 q 300 428 309 437 q 317 445 323 453 z"}," ":{"x_min":0,"x_max":214,"ha":214,"o":""},"I":{"x_min":0,"x_max":269,"ha":269,"o":"m 71 834 l 198 834 l 198 0 l 71 0 z"},"H":{"x_min":0,"x_max":546,"ha":546,"o":"m 71 834 l 198 834 l 198 485 l 348 485 l 348 834 l 474 834 l 474 0 l 348 0 l 348 385 l 198 385 l 198 0 l 71 0 z"},"4":{"x_min":0,"x_max":537,"ha":537,"o":"m 40 216 l 283 834 l 434 834 l 434 249 l 511 249 l 511 149 l 434 149 l 434 0 l 316 0 l 316 149 l 40 149 z m 316 249 l 316 372 l 328 686 l 313 686 l 168 249 z"},"~":{"x_min":0,"x_max":637,"ha":637,"o":"m 63 220 q 59 283 69 325 q 79 368 100 393 q 120 418 149 429 q 177 439 209 439 q 241 439 266 428 q 290 417 309 400 q 328 383 343 363 q 358 344 371 327 q 385 310 398 298 q 412 287 428 287 q 461 287 474 322 q 486 357 475 424 l 568 424 q 579 367 572 324 q 565 281 546 252 q 526 224 498 209 q 470 195 439 195 q 406 195 381 206 q 355 217 335 234 q 315 250 299 270 q 284 290 269 307 q 255 323 241 334 q 228 346 212 346 q 193 346 180 336 q 167 327 160 311 q 153 294 152 271 q 150 248 154 220 l 63 220 z"},"D":{"x_min":0,"x_max":518,"ha":518,"o":"m 71 834 l 203 834 q 232 834 264 832 q 296 831 327 822 q 357 813 385 795 q 412 776 432 743 q 453 710 465 660 q 477 610 477 538 l 477 296 q 477 224 465 173 q 453 123 432 90 q 412 58 385 39 q 357 21 327 12 q 296 3 264 2 q 232 0 203 0 l 71 0 z m 230 88 q 264 88 286 97 q 309 106 322 128 q 334 150 339 189 q 344 227 344 286 l 344 544 q 344 603 339 641 q 334 680 322 702 q 309 724 286 733 q 264 742 230 742 l 198 742 l 198 88 z"},"^":{"x_min":0,"x_max":468,"ha":468,"o":"m 175 842 l 289 842 l 451 135 l 344 135 l 265 521 l 240 685 l 228 685 l 202 521 l 124 135 l 17 135 z"},"0":{"x_min":0,"x_max":511,"ha":511,"o":"m 51 596 q 51 650 61 690 q 71 730 88 757 q 104 784 125 801 q 147 817 170 826 q 192 835 215 838 q 238 841 257 841 q 275 841 297 839 q 319 836 342 827 q 365 819 386 802 q 407 786 424 759 q 440 731 450 691 q 460 651 460 596 l 460 243 q 460 188 450 149 q 440 109 423 81 q 407 53 385 36 q 364 19 341 9 q 319 0 297 -4 q 274 -7 257 -7 q 237 -7 214 -4 q 191 0 168 9 q 146 19 124 36 q 103 53 87 81 q 71 108 61 148 q 51 188 51 243 z m 181 190 q 181 138 199 115 q 218 91 257 91 q 294 91 313 115 q 332 138 332 190 l 332 642 q 332 696 313 721 q 294 746 257 746 q 218 746 199 721 q 181 696 181 642 z"},"F":{"x_min":0,"x_max":403,"ha":403,"o":"m 71 834 l 390 834 l 390 734 l 198 734 l 198 485 l 349 485 l 349 385 l 198 385 l 198 0 l 71 0 z"},"`":{"x_min":0,"x_max":335,"ha":335,"o":"m 56 901 l 138 968 l 280 765 l 219 714 z"},"k":{"x_min":0,"x_max":460,"ha":460,"o":"m 65 888 l 189 888 l 189 377 l 193 377 l 328 672 l 446 672 l 297 365 l 460 0 l 334 0 l 193 333 l 189 333 l 189 0 l 65 0 z"},"u":{"x_min":0,"x_max":499,"ha":499,"o":"m 64 672 l 188 672 l 188 167 q 188 123 202 105 q 215 88 242 88 q 260 88 278 98 q 295 108 310 127 l 310 672 l 433 672 l 433 0 l 339 0 l 327 72 l 326 72 q 312 49 295 33 q 279 18 261 9 q 243 0 225 -4 q 206 -8 188 -8 q 128 -8 96 33 q 64 74 64 157 z"},"]":{"x_min":0,"x_max":379,"ha":379,"o":"m 203 -32 l 203 865 l 64 865 l 64 958 l 311 958 l 311 -125 l 64 -125 l 64 -32 z"},"U":{"x_min":0,"x_max":534,"ha":534,"o":"m 68 834 l 196 834 l 196 223 q 196 184 200 158 q 204 132 212 116 q 221 101 234 94 q 248 88 266 88 q 285 88 299 94 q 312 101 322 116 q 331 132 335 158 q 340 184 340 223 l 340 834 l 466 834 l 466 256 q 466 195 456 152 q 446 108 430 79 q 414 50 393 33 q 373 16 350 7 q 328 -2 306 -5 q 284 -7 266 -7 q 248 -7 226 -5 q 205 -2 183 7 q 161 16 140 33 q 120 50 104 79 q 87 108 78 152 q 68 195 68 256 z"},"o":{"x_min":0,"x_max":464,"ha":464,"o":"m 233 -7 q 211 -7 189 -4 q 167 0 146 10 q 125 21 107 41 q 89 61 75 94 q 62 126 54 174 q 46 222 46 289 l 46 394 q 46 459 54 506 q 62 553 76 584 q 90 616 108 635 q 127 654 148 664 q 168 674 190 677 q 212 680 233 680 q 253 680 275 677 q 296 674 317 665 q 337 655 356 636 q 374 618 388 586 q 402 554 410 507 q 418 460 418 394 l 418 289 q 418 223 410 176 q 401 128 387 96 q 373 63 354 43 q 336 22 315 11 q 295 0 274 -4 q 252 -7 233 -7 z m 234 88 q 250 88 262 96 q 273 105 281 125 q 288 144 291 176 q 294 208 294 255 l 294 421 q 294 468 291 500 q 288 533 281 552 q 273 572 262 581 q 250 590 234 590 q 216 590 204 581 q 192 572 185 552 q 177 533 173 500 q 170 468 170 421 l 170 255 q 170 208 173 176 q 177 144 185 125 q 192 105 204 96 q 216 88 234 88 z"},"N":{"x_min":0,"x_max":550,"ha":550,"o":"m 71 834 l 174 834 l 376 276 l 379 276 q 377 295 375 319 q 373 343 371 374 q 369 404 367 443 q 366 481 366 530 l 366 834 l 479 834 l 479 0 l 375 0 l 174 543 l 170 543 q 172 521 174 496 q 177 470 179 436 q 181 401 182 355 q 184 309 184 245 l 184 0 l 71 0 z"},"+":{"x_min":0,"x_max":408,"ha":408,"o":"m 155 337 l 22 337 l 22 433 l 155 433 l 155 586 l 252 586 l 252 433 l 386 433 l 386 337 l 252 337 l 252 180 l 155 180 z"},"G":{"x_min":0,"x_max":511,"ha":511,"o":"m 240 -8 q 225 -8 206 -5 q 186 -1 165 9 q 145 19 125 38 q 104 57 89 88 q 73 119 63 164 q 53 209 53 271 l 53 567 q 53 630 63 675 q 74 719 91 750 q 108 780 130 798 q 152 816 176 826 q 200 835 224 838 q 247 841 267 841 q 318 841 353 827 q 388 813 409 789 q 431 765 441 733 q 450 701 450 665 q 450 638 447 615 q 444 592 438 565 l 337 565 l 337 604 q 337 742 264 742 q 244 742 229 735 q 214 728 205 712 q 195 695 190 668 q 186 642 186 602 l 186 224 q 186 185 190 159 q 195 133 204 117 q 214 102 228 95 q 243 88 263 88 q 284 88 299 99 q 314 110 324 129 q 333 148 338 174 q 343 200 343 230 l 343 339 l 278 339 l 278 422 l 466 422 l 466 0 l 382 0 l 368 79 q 344 33 313 12 q 282 -8 240 -8 z"},"q":{"x_min":0,"x_max":482,"ha":482,"o":"m 192 -7 q 181 -7 166 -5 q 151 -3 135 5 q 119 13 103 28 q 87 44 75 71 q 63 98 55 138 q 48 178 48 235 l 48 438 q 48 496 55 536 q 63 576 75 603 q 87 629 102 645 q 118 660 133 668 q 148 676 163 678 q 177 680 188 680 q 211 680 230 673 q 250 666 265 655 q 280 644 291 630 q 303 616 311 603 l 323 672 l 419 672 l 419 -218 l 296 -218 l 296 -39 l 299 43 q 283 22 257 8 q 231 -7 192 -7 z m 234 88 q 247 88 256 92 q 266 96 273 103 q 281 109 286 118 q 292 127 296 136 l 296 541 q 287 561 271 575 q 256 590 234 590 q 220 590 209 585 q 198 580 189 566 q 181 553 177 529 q 172 505 172 467 l 172 210 q 172 173 177 149 q 181 125 189 112 q 198 98 209 93 q 221 88 234 88 z"},"d":{"x_min":0,"x_max":482,"ha":482,"o":"m 192 -8 q 181 -8 166 -6 q 151 -3 135 4 q 119 12 103 28 q 87 43 75 71 q 63 98 55 138 q 48 178 48 235 l 48 448 q 48 505 56 544 q 64 583 77 609 q 90 634 107 649 q 123 663 139 670 q 156 677 171 678 q 186 680 195 680 q 213 680 229 675 q 246 670 259 662 q 272 654 282 644 q 292 634 299 624 l 300 624 l 296 709 l 296 888 l 419 888 l 419 0 l 323 0 l 312 62 q 304 49 293 37 q 282 24 268 14 q 253 4 234 -2 q 216 -8 192 -8 z m 234 88 q 247 88 256 92 q 266 96 273 103 q 281 109 286 118 q 292 127 296 136 l 296 541 q 287 561 271 575 q 256 590 234 590 q 220 590 209 585 q 198 580 189 567 q 181 553 177 530 q 172 506 172 468 l 172 210 q 172 173 177 149 q 181 125 189 112 q 198 98 209 93 q 221 88 234 88 z"},"1":{"x_min":0,"x_max":405,"ha":405,"o":"m 74 95 l 171 95 l 171 664 l 67 573 l 13 637 l 202 834 l 296 834 l 296 833 l 296 833 l 296 95 l 393 95 l 393 0 l 74 0 z"},"5":{"x_min":0,"x_max":503,"ha":503,"o":"m 62 171 q 62 216 74 268 l 172 268 l 172 200 q 172 140 190 114 q 207 88 247 88 q 287 88 303 117 q 320 146 320 200 l 320 361 q 320 392 314 411 q 309 431 300 442 q 291 453 278 457 q 266 460 251 460 q 224 460 204 445 q 185 430 172 408 l 79 408 l 79 834 l 437 834 l 437 722 l 184 722 l 184 516 q 205 540 236 553 q 267 566 300 566 q 378 566 414 514 q 450 461 450 360 l 450 218 q 450 154 434 111 q 417 67 390 41 q 362 15 326 4 q 291 -7 252 -7 q 206 -7 170 5 q 135 18 111 41 q 86 64 74 97 q 62 130 62 171 z"}}}
